<?xml version="1.0" standalone="no"?>
<!DOCTYPE svg PUBLIC "-//W3C//DTD SVG 20010904//EN"
 "http://www.w3.org/TR/2001/REC-SVG-20010904/DTD/svg10.dtd">
<svg version="1.0" xmlns="http://www.w3.org/2000/svg"
 width="559.000000pt" height="125.000000pt" viewBox="0 0 559.000000 125.000000"
 preserveAspectRatio="xMidYMid meet">

<g transform="translate(0.000000,125.000000) scale(0.100000,-0.100000)"
fill="#000000" stroke="none">
<path d="M600 1094 c-136 -29 -274 -122 -343 -231 -46 -73 -70 -159 -70 -253
0 -243 171 -436 432 -487 196 -39 407 42 528 201 220 292 52 692 -324 771 -83
18 -138 18 -223 -1z m226 -114 c123 -43 160 -108 97 -172 -38 -38 -70 -39
-115 -4 -27 20 -46 26 -85 26 -57 0 -79 -16 -69 -54 6 -25 19 -32 156 -94 87
-38 135 -81 154 -139 20 -59 20 -97 0 -157 -54 -158 -283 -206 -450 -93 -78
52 -86 86 -35 147 32 38 71 43 104 12 37 -34 84 -52 133 -52 56 0 84 21 84 62
0 28 -7 33 -113 83 -140 66 -170 90 -196 161 -24 63 -25 82 -9 135 38 128 193
190 344 139z"/>
</g>
</svg>
